<?xml version="1.0" encoding="iso-8859-1"?>
<!-- Generator: Adobe Illustrator 19.0.0, SVG Export Plug-In . SVG Version: 6.00 Build 0)  -->
<svg version="1.1" id="Capa_1" xmlns="http://www.w3.org/2000/svg" xmlns:xlink="http://www.w3.org/1999/xlink" x="0px" y="0px"
	 viewBox="0 0 512 512" style="enable-background:new 0 0 512 512;" xml:space="preserve">
<path style="fill:#54E360;" d="M426.419,39.6c-52.5-52.8-138.3-52.8-190.8,0c-6,5.7-6,15.3,0,21l158.4,158.4l11.4,11.4
	c5.7,6,15.3,6,21,0C479.219,177.9,479.219,92.1,426.419,39.6z"/>
<path style="fill:#00CC71;" d="M426.419,230.4c-5.7,6-15.3,6-21,0l-84.899-84.901L426.419,39.6
	C479.219,92.1,479.219,177.9,426.419,230.4z"/>
<path style="fill:#FFD400;" d="M405.419,60.6c-44.53-44.17-119.11-40.54-158.4,11.4l147,147
	C445.969,179.71,449.599,105.14,405.419,60.6z"/>
<path style="fill:#FDBF00;" d="M394.019,219c51.95-39.29,55.58-113.86,11.4-158.4l-84.9,84.9L394.019,219z"/>
<path style="fill:#ECECF1;" d="M376.019,106.199l-6.301,82.8L340.919,236.7c-40.501,20.4-88.5,21.899-129.9,4.2
	c-3.3-1.201-6.599-2.701-9.901-4.2c-32.399-15.901-54.899-17.701-88.5-4.2l-57.599-9.3l-9-117.001c-0.3-4.199,1.199-8.399,3.9-11.4
	C52.918,91.8,56.819,90,61.019,90h300c4.2,0,8.101,1.8,11.1,4.799C374.82,97.8,376.319,102.001,376.019,106.199z"/>
<path style="fill:#E2E2E7;" d="M376.019,106.199l-6.301,82.8L340.919,236.7c-40.501,20.4-88.5,21.899-129.9,4.2V90h150
	c4.2,0,8.101,1.8,11.1,4.799C374.82,97.8,376.319,102.001,376.019,106.199z"/>
<path style="fill:#FF0059;" d="M369.718,189l-2.699,34.801l-18.9,244.799c-1.8,23.101-21.601,43.4-45,43.4h-184.2
	c-23.399,0-43.2-20.3-45-43.7l-16.5-213.6l-2.401-31.5l46.5-18.6c40.201-15.901,71.1-14.7,109.501,3.9
	c1.199,0.3,2.401,0.899,3.6,1.5c1.8,0.901,3.9,1.199,5.7,2.1l15.3,14.7l45.899,21.301l21.901-29.401c8.399-2.1,16.5-4.799,24-8.699
	L369.718,189z"/>
<path style="fill:#E50048;" d="M369.718,189l-2.699,34.801l-18.9,244.799c-1.8,23.101-21.601,43.4-45,43.4h-92.1V208.5
	c1.199,0.3,2.401,0.899,3.6,1.5c1.8,0.901,3.9,1.199,5.7,2.1l15.3,14.7l45.899,21.301l21.901-29.401c8.399-2.1,16.5-4.799,24-8.699
	L369.718,189z"/>
<g>
	<path style="fill:#FF3980;" d="M133.441,384.858L133.441,384.858c-3.984,0-7.793-1.582-10.605-4.395l-42.422-42.437
		c-5.859-5.859-5.859-15.352,0-21.211l42.422-42.422c5.859-5.859,15.352-5.859,21.211,0l42.437,42.422
		c2.813,2.813,4.395,6.621,4.395,10.605s-1.582,7.793-4.395,10.605l-42.437,42.437C141.234,383.276,137.425,384.858,133.441,384.858
		z"/>
	<path style="fill:#FF3980;" d="M294.12,394.501L251.519,351.9c-5.7-5.7-15.298-5.7-20.999,0l-42.601,42.601
		c-5.7,5.7-5.7,15.298,0,20.999l42.601,42.601c2.699,2.999,6.599,4.199,10.499,4.199s7.8-1.199,10.499-4.199l42.601-42.601
		C299.82,409.799,299.82,400.201,294.12,394.501z"/>
</g>
<path style="fill:#ECECF1;" d="M269.203,184.395c-5.859-5.859-15.352-5.859-21.211,0l-27.678,27.669l46.071,40.649l37.072-34.065
	L269.203,184.395z"/>
<path style="fill:#FF3980;" d="M311.518,248.101L269.219,290.4c-2.701,3.001-6.601,4.501-10.499,4.501c-4.2,0-7.8-1.5-10.801-4.501
	l-42.299-42.299c-3.001-3.001-4.501-6.601-4.501-10.801c0-3.898,1.5-7.798,4.501-10.499l14.7-14.7
	c26.4,11.4,55.499,13.801,83.101,6.599l8.099,8.101C317.519,232.8,317.519,242.1,311.518,248.101z"/>
<g>
	<path style="fill:#FF0059;" d="M294.12,394.501c5.7,5.7,5.7,15.298,0,20.999l-42.601,42.601c-2.699,2.999-6.599,4.199-10.499,4.199
		s-7.8-1.199-10.499-4.199L211.019,438.6v-67.2l19.501-19.501c5.7-5.7,15.298-5.7,20.999,0L294.12,394.501z"/>
	<path style="fill:#FF0059;" d="M311.518,248.101L269.219,290.4c-2.701,3.001-6.601,4.501-10.499,4.501c-4.2,0-7.8-1.5-10.801-4.501
		l-36.9-36.9v-32.1l9.3-9.3c26.4,11.4,55.499,13.801,83.101,6.599l8.099,8.101C317.519,232.8,317.519,242.1,311.518,248.101z"/>
</g>
<g>
</g>
<g>
</g>
<g>
</g>
<g>
</g>
<g>
</g>
<g>
</g>
<g>
</g>
<g>
</g>
<g>
</g>
<g>
</g>
<g>
</g>
<g>
</g>
<g>
</g>
<g>
</g>
<g>
</g>
</svg>
