<svg id="Capa_1" enable-background="new 0 0 512 512" height="512" viewBox="0 0 512 512" width="512" xmlns="http://www.w3.org/2000/svg"><g><g><path d="m244.527.741h39.774v357.796h-39.774z" fill="#dddaec" transform="matrix(.985 .173 -.173 .985 35.111 -43.083)"/><path d="m244.691-1.141h18.05v357.796h-18.05z" fill="#d0cee7" transform="matrix(.985 .173 -.173 .985 34.623 -41.258)"/><path d="m303.259 93.03-45.81-8.056c-10.976-1.93-18.309-12.393-16.378-23.368l.179-1.016c1.93-10.976 12.393-18.309 23.368-16.378l45.81 8.056c10.976 1.93 18.309 12.393 16.378 23.368l-.179 1.016c-1.93 10.975-12.392 18.308-23.368 16.378z" fill="#dddaec"/><path d="m287.227 90.219-29.78-5.237c-10.971-1.929-18.305-12.394-16.374-23.375l.178-1.01c1.931-10.981 12.395-18.315 23.366-16.386l29.78 5.237c-10.971-1.929-21.435 5.405-23.366 16.386l-.178 1.01c-1.931 10.981 5.403 21.446 16.374 23.375z" fill="#d0cee7"/></g><path d="m329.058 190.201v-.004l-73.058-19.879-73.058 19.88c0 29.746-11.879 58.387-33.363 78.96-29.003 27.774-47.158 66.785-47.465 110.04-.596 83.907 66.852 131.084 150.745 132.757 86.429 1.723 157.032-45.604 157.032-131.64 0-43.622-18.151-83.002-47.311-111.005-21.51-20.656-33.522-49.288-33.522-79.109z" fill="#b48e84"/><path d="m254.873 511.958c.269.01.539.031.818.031-.943 0-1.886-.01-2.839-.031-83.892-1.679-151.34-48.858-150.739-132.76.301-43.252 18.455-82.265 47.459-110.036 10.746-10.29 19.087-22.59 24.745-36.04 5.647-13.45 8.621-28.05 8.621-42.92l73.053-19.885-26.133 19.885c0 14.87-1.067 29.47-3.088 42.92s-5.005 25.75-8.849 36.04c-10.373 27.771-16.87 66.784-16.983 110.036-.207 83.902 23.916 131.081 53.935 132.76z" fill="#a77d73"/><path d="m333.072 150.438h-154.144c-10.979 0-19.88 8.9-19.88 19.88 0 10.979 8.9 19.88 19.88 19.88h154.144c10.979 0 19.88-8.9 19.88-19.88 0-10.979-8.901-19.88-19.88-19.88z" fill="#ffd064"/><path d="m231.49 184.379c3.596 3.596 8.57 5.824 14.062 5.824h-66.618c-5.492 0-10.466-2.228-14.062-5.824s-5.823-8.57-5.823-14.062c0-10.973 8.901-19.875 19.885-19.875h66.618c-10.984 0-19.885 8.901-19.885 19.875-.001 5.493 2.228 10.467 5.823 14.062z" fill="#ffc250"/></g></svg>